<svg width="16" height="16" viewBox="0 0 16 16" fill="none" xmlns="http://www.w3.org/2000/svg">
<path fill-rule="evenodd" clip-rule="evenodd" d="M12.8196 4.73722C12.868 4.7218 12.9316 4.75264 12.9953 4.83746C12.9953 4.83746 12.9953 4.83746 15.8729 7.68017C16.0409 7.84981 16.0409 8.10684 15.8729 8.23278C15.8729 8.23278 15.8729 8.23278 12.9953 11.1192C12.9316 11.204 12.868 11.2246 12.8196 11.1989C12.7712 11.1732 12.7406 11.0986 12.7406 10.9907V4.92228C12.7406 4.8169 12.7712 4.75264 12.8196 4.73722Z" fill="white"/>
<path fill-rule="evenodd" clip-rule="evenodd" d="M7.89786 0H8.10158L8.29766 0.0822488C8.29766 0.0822488 8.29766 0.0822487 11.2593 3.05348C11.3866 3.22311 11.3433 3.35163 11.132 3.35163C11.132 3.35163 11.132 3.35163 9.90453 3.35163C9.69317 3.35163 9.5251 3.52127 9.5251 3.7346C9.5251 3.7346 9.5251 3.7346 9.5251 5.93989C9.5251 6.15322 9.35448 6.32286 9.09982 6.32286C9.09982 6.32286 9.09982 6.32286 6.9429 6.32286C6.73154 6.32286 6.56092 6.15322 6.56092 5.93989C6.56092 5.93989 6.56092 5.93989 6.56092 3.7346C6.56092 3.52127 6.39285 3.35163 6.17894 3.35163H4.86747C4.65611 3.35163 4.61282 3.22311 4.74014 3.05348C4.74014 3.05348 4.74015 3.05348 7.70432 0.0822488L7.89786 0Z" fill="white"/>
<path fill-rule="evenodd" clip-rule="evenodd" d="M3.2583 4.67264C3.31178 4.69835 3.34488 4.77288 3.34488 4.88084V11.0752C3.34488 11.1831 3.31178 11.2474 3.2583 11.2679C3.20737 11.2885 3.13352 11.2679 3.04694 11.2037C3.04694 11.2037 3.04694 11.2037 0.126054 8.23246C-0.0420179 8.10652 -0.0420179 7.84949 0.126054 7.67986C0.126054 7.67986 0.126054 7.67986 3.04694 4.75232C3.13352 4.6675 3.20737 4.64694 3.2583 4.67264Z" fill="white"/>
<path fill-rule="evenodd" clip-rule="evenodd" d="M6.9418 9.54852C6.9418 9.54852 6.9418 9.54852 9.09872 9.54852C9.35338 9.54852 9.52399 9.71816 9.52399 9.93149C9.52399 9.93149 9.52399 9.93149 9.52399 12.2653C9.52399 12.5198 9.69207 12.6894 9.90343 12.6894H11.0468C11.2582 12.6894 11.3422 12.8153 11.1742 12.9438C11.1742 12.9438 11.1742 12.9438 8.29656 15.8714C8.20998 15.9562 8.10557 15.9999 7.99862 15.9999C7.89421 15.9999 7.78725 15.9562 7.70322 15.8714C7.70322 15.8714 7.70322 15.8714 4.82562 12.9438C4.65501 12.8153 4.73904 12.6894 4.95041 12.6894C4.95041 12.6894 4.9504 12.6894 6.17784 12.6894C6.39175 12.6894 6.55982 12.5198 6.55982 12.2653C6.55982 12.2653 6.55982 12.2653 6.55982 9.93149C6.55982 9.71816 6.73044 9.54852 6.9418 9.54852Z" fill="white"/>
</svg>
