<svg width="20" height="19" viewBox="0 0 20 19" fill="none" xmlns="http://www.w3.org/2000/svg">
<path fill-rule="evenodd" clip-rule="evenodd" d="M0.5 1.25C0.5 0.835786 0.835786 0.5 1.25 0.5H3.125C3.4723 0.5 3.77416 0.738434 3.8546 1.07628L4.31263 3H18.75C18.9786 3 19.1946 3.10422 19.3369 3.28309C19.4792 3.46195 19.5322 3.69594 19.4808 3.91864L17.6058 12.0436C17.5273 12.3839 17.2242 12.625 16.875 12.625H6.6043L6.84239 13.625H16.875C17.2892 13.625 17.625 13.9608 17.625 14.375C17.625 14.7892 17.2892 15.125 16.875 15.125H6.25C5.9027 15.125 5.60084 14.8866 5.5204 14.5487L4.97147 12.2432C4.91005 12.1345 4.875 12.0088 4.875 11.875C4.875 11.8637 4.87525 11.8524 4.87575 11.8412L2.53261 2H1.25C0.835786 2 0.5 1.66421 0.5 1.25ZM6.24716 11.125H16.2784L17.8072 4.5H4.66978L6.24716 11.125Z" fill="white"/>
<path fill-rule="evenodd" clip-rule="evenodd" d="M15.625 16.375C15.3489 16.375 15.125 16.5989 15.125 16.875C15.125 17.1511 15.3489 17.375 15.625 17.375C15.9011 17.375 16.125 17.1511 16.125 16.875C16.125 16.5989 15.9011 16.375 15.625 16.375ZM13.625 16.875C13.625 15.7704 14.5204 14.875 15.625 14.875C16.7296 14.875 17.625 15.7704 17.625 16.875C17.625 17.9796 16.7296 18.875 15.625 18.875C14.5204 18.875 13.625 17.9796 13.625 16.875Z" fill="white"/>
<path fill-rule="evenodd" clip-rule="evenodd" d="M7.5 16.375C7.22386 16.375 7 16.5989 7 16.875C7 17.1511 7.22386 17.375 7.5 17.375C7.77614 17.375 8 17.1511 8 16.875C8 16.5989 7.77614 16.375 7.5 16.375ZM5.5 16.875C5.5 15.7704 6.39543 14.875 7.5 14.875C8.60457 14.875 9.5 15.7704 9.5 16.875C9.5 17.9796 8.60457 18.875 7.5 18.875C6.39543 18.875 5.5 17.9796 5.5 16.875Z" fill="white"/>
</svg>
