<svg width="16" height="17" fill="none" xmlns="http://www.w3.org/2000/svg"><path fill-rule="evenodd" clip-rule="evenodd" d="M11 3.5v5.334a2.667 2.667 0 01-2.666 2.667H3.001A2.667 2.667 0 01.334 8.834V3.501A2.667 2.667 0 013.001.834h5.333a2.667 2.667 0 012.667 2.667zm-9.666 0v5.334a1.667 1.667 0 001.667 1.667h5.333c.92 0 1.667-.747 1.667-1.667V3.501c0-.92-.747-1.667-1.667-1.667H3.001c-.92 0-1.667.746-1.667 1.667z" fill="#000"/><path d="M13 5a.507.507 0 00-.5.5v5.334a2.173 2.173 0 01-2.166 2.167H5.001a.5.5 0 100 1h5.333a3.167 3.167 0 003.167-3.167V5.501A.507.507 0 0013 5z" fill="#000"/></svg>