<svg width="22" height="20" viewBox="0 0 22 20" fill="none" xmlns="http://www.w3.org/2000/svg">
<path d="M0.76685 0.76685V0C0.563469 0 0.368418 0.0807928 0.224605 0.224605C0.0807929 0.368417 0 0.563469 0 0.76685H0.76685ZM12.014 0.76685H12.7808C12.7808 0.563469 12.7 0.368417 12.5562 0.224605C12.4124 0.0807928 12.2174 0 12.014 0V0.76685ZM12.014 6.90165V6.1348C11.8106 6.1348 11.6156 6.21559 11.4717 6.35941C11.3279 6.50322 11.2471 6.69827 11.2471 6.90165H12.014ZM0.76685 1.5337H12.014V0H0.76685V1.5337ZM11.2471 0.76685V17.1263H12.7808V0.76685H11.2471ZM1.5337 15.0814V0.76685H0V15.0814H1.5337ZM12.014 7.6685H17.1263V6.1348H12.014V7.6685ZM20.4493 10.9915V15.0814H21.983V10.9915H20.4493ZM12.7808 17.1263V6.90165H11.2471V17.1263H12.7808ZM18.0302 18.0302C17.9115 18.1489 17.7706 18.2431 17.6155 18.3073C17.4604 18.3716 17.2942 18.4046 17.1263 18.4046C16.9584 18.4046 16.7922 18.3716 16.6371 18.3073C16.4821 18.2431 16.3411 18.1489 16.2225 18.0302L15.1386 19.114C15.666 19.6413 16.3811 19.9375 17.1268 19.9375C17.8725 19.9375 18.5877 19.6413 19.115 19.114L18.0302 18.0302ZM16.2225 16.2225C16.3411 16.1037 16.4821 16.0096 16.6371 15.9453C16.7922 15.8811 16.9584 15.848 17.1263 15.848C17.2942 15.848 17.4604 15.8811 17.6155 15.9453C17.7706 16.0096 17.9115 16.1037 18.0302 16.2225L19.114 15.1386C18.5867 14.6114 17.8715 14.3151 17.1258 14.3151C16.3801 14.3151 15.6649 14.6114 15.1376 15.1386L16.2225 16.2225ZM5.76058 18.0302C5.64189 18.1489 5.50098 18.2431 5.3459 18.3073C5.19081 18.3716 5.02459 18.4046 4.85672 18.4046C4.68885 18.4046 4.52262 18.3716 4.36754 18.3073C4.21245 18.2431 4.07154 18.1489 3.95286 18.0302L2.86904 19.114C3.39635 19.6413 4.11152 19.9375 4.85723 19.9375C5.60294 19.9375 6.31811 19.6413 6.84542 19.114L5.76058 18.0302ZM3.95286 16.2225C4.07154 16.1037 4.21245 16.0096 4.36754 15.9453C4.52262 15.8811 4.68885 15.848 4.85672 15.848C5.02459 15.848 5.19081 15.8811 5.3459 15.9453C5.50098 16.0096 5.64189 16.1037 5.76058 16.2225L6.84439 15.1386C6.31708 14.6114 5.60192 14.3151 4.85621 14.3151C4.1105 14.3151 3.39533 14.6114 2.86802 15.1386L3.95286 16.2225ZM18.0302 16.2225C18.2797 16.4719 18.4044 16.7981 18.4044 17.1263H19.9381C19.9381 16.4075 19.6631 15.6867 19.115 15.1376L18.0302 16.2225ZM18.4044 17.1263C18.4044 17.4545 18.2797 17.7807 18.0302 18.0302L19.115 19.114C19.3765 18.8532 19.5828 18.5434 19.7243 18.2023C19.8657 17.8612 19.9383 17.4956 19.9381 17.1263H18.4044ZM15.0814 16.3595H12.014V17.8932H15.0814V16.3595ZM16.2225 18.0302C16.1035 17.9117 16.0092 17.7708 15.945 17.6157C15.8807 17.4605 15.8479 17.2942 15.8482 17.1263H14.3145C14.3145 17.8451 14.5896 18.5659 15.1376 19.115L16.2225 18.0302ZM15.8482 17.1263C15.8482 16.7981 15.973 16.4719 16.2225 16.2225L15.1376 15.1386C14.8762 15.3994 14.6698 15.7092 14.5284 16.0503C14.387 16.3914 14.3143 16.7571 14.3145 17.1263H15.8482ZM3.95286 18.0302C3.83391 17.9117 3.7396 17.7708 3.67537 17.6157C3.61115 17.4605 3.57827 17.2942 3.57863 17.1263H2.04493C2.04493 17.8451 2.31998 18.5659 2.86802 19.115L3.95286 18.0302ZM3.57863 17.1263C3.57863 16.7981 3.70337 16.4719 3.95286 16.2225L2.86904 15.1386C2.60764 15.3994 2.40028 15.7092 2.25886 16.0503C2.11744 16.3914 2.04475 16.7571 2.04493 17.1263H3.57863ZM12.014 16.3595H6.90165V17.8932H12.014V16.3595ZM5.76058 16.2225C6.01006 16.4719 6.1348 16.7981 6.1348 17.1263H7.6685C7.6685 16.4075 7.39346 15.6867 6.84542 15.1376L5.76058 16.2225ZM6.1348 17.1263C6.1348 17.4545 6.01006 17.7807 5.76058 18.0302L6.84439 19.114C7.1058 18.8532 7.31315 18.5434 7.45457 18.2023C7.59599 17.8612 7.66869 17.4956 7.6685 17.1263H6.1348ZM20.4493 15.0814C20.4493 15.7869 19.8768 16.3595 19.1713 16.3595V17.8932C19.917 17.8932 20.6322 17.5969 21.1595 17.0696C21.6868 16.5423 21.983 15.8271 21.983 15.0814H20.4493ZM17.1263 7.6685C18.0076 7.6685 18.8529 8.0186 19.476 8.64179C20.0992 9.26498 20.4493 10.1102 20.4493 10.9915H21.983C21.983 9.70343 21.4713 8.46811 20.5605 7.5573C19.6497 6.64649 18.4144 6.1348 17.1263 6.1348V7.6685ZM0 15.0814C0 15.8271 0.296241 16.5423 0.823552 17.0696C1.35086 17.5969 2.06605 17.8932 2.81178 17.8932V16.3595C2.10628 16.3595 1.5337 15.7869 1.5337 15.0814H0Z" fill="#009387"/>
<path fill-rule="evenodd" clip-rule="evenodd" d="M1.53125 5.87891V5.12891H3.834C4.24821 5.12891 4.584 5.46469 4.584 5.87891C4.584 6.29312 4.24821 6.62891 3.834 6.62891H1.53125V5.87891ZM1.5327 10C1.5327 10 1.53271 8.93059 1.5327 9.21877H5.87893C6.29315 9.21877 6.62893 9.55456 6.62893 9.96877C6.62893 10.383 6.29315 10.7188 5.87893 10.7188H1.5327V10Z" fill="#009387"/>
</svg>
