<svg width="30" height="30" viewBox="0 0 30 30" fill="none" xmlns="http://www.w3.org/2000/svg">
<path d="M15 30C12.0333 30 9.13319 29.1203 6.66645 27.4721C4.19972 25.8238 2.27713 23.4812 1.14181 20.7403C0.00649941 17.9994 -0.290551 14.9834 0.288227 12.0737C0.867006 9.16394 2.29562 6.49119 4.3934 4.3934C6.49119 2.29562 9.16394 0.867006 12.0737 0.288227C14.9834 -0.290551 17.9994 0.00649941 20.7403 1.14181C23.4812 2.27713 25.8238 4.19972 27.4721 6.66645C29.1203 9.13319 30 12.0333 30 15C30 18.9783 28.4197 22.7936 25.6066 25.6066C22.7936 28.4197 18.9783 30 15 30ZM15 2.00001C12.4288 2.00001 9.91543 2.76244 7.77759 4.1909C5.63975 5.61936 3.97351 7.64968 2.98957 10.0251C2.00563 12.4006 1.74819 15.0144 2.2498 17.5362C2.75141 20.0579 3.98954 22.3743 5.80762 24.1924C7.6257 26.0105 9.94208 27.2486 12.4638 27.7502C14.9856 28.2518 17.5995 27.9944 19.9749 27.0104C22.3503 26.0265 24.3807 24.3603 25.8091 22.2224C27.2376 20.0846 28 17.5712 28 15C28 11.5522 26.6304 8.24559 24.1924 5.80762C21.7544 3.36965 18.4478 2.00001 15 2.00001Z" fill="#101820"/>
<path d="M12.67 21C12.5329 20.9996 12.3973 20.9709 12.2718 20.9159C12.1462 20.8608 12.0332 20.7805 11.94 20.68L7.27001 15.68C7.11044 15.4832 7.03151 15.2332 7.04917 14.9805C7.06683 14.7277 7.17975 14.4911 7.36514 14.3184C7.55052 14.1458 7.79453 14.0499 8.04788 14.0502C8.30123 14.0504 8.54502 14.1469 8.73001 14.32L12.67 18.53L21.27 9.31999C21.3564 9.21351 21.4637 9.12591 21.5853 9.06265C21.7069 8.99939 21.8403 8.96182 21.977 8.95226C22.1138 8.94271 22.2511 8.96137 22.3803 9.00711C22.5096 9.05284 22.628 9.12466 22.7283 9.21811C22.8287 9.31155 22.9087 9.42463 22.9635 9.55031C23.0182 9.67599 23.0466 9.81159 23.0467 9.94869C23.0469 10.0858 23.0189 10.2215 22.9644 10.3473C22.9099 10.4731 22.8301 10.5863 22.73 10.68L13.4 20.68C13.3068 20.7805 13.1939 20.8608 13.0683 20.9159C12.9427 20.9709 12.8071 20.9996 12.67 21Z" fill="#101820"/>
</svg>
