<svg width="17" height="15" viewBox="0 0 17 15" fill="none" xmlns="http://www.w3.org/2000/svg">
<path fill-rule="evenodd" clip-rule="evenodd" d="M8.5 14.375C8.19236 14.9203 8.19199 14.9201 8.19199 14.9201L8.18981 14.9189L8.18441 14.9159C8.18202 14.9145 8.17912 14.9129 8.17571 14.911C8.17263 14.9092 8.16913 14.9073 8.16523 14.905C8.14878 14.8957 8.12509 14.8822 8.09463 14.8646C8.03372 14.8294 7.94572 14.7777 7.83449 14.7105C7.61212 14.5762 7.29647 14.3794 6.91859 14.1268C6.16405 13.6225 5.15527 12.8918 4.14361 11.988C2.1584 10.2144 0 7.63142 0 4.68751C0 3.60387 0.378227 2.5537 1.07033 1.71568C1.76243 0.877663 2.72565 0.303554 3.79612 0.0910354C4.86658 -0.121483 5.97816 0.040717 6.94173 0.550039C7.5569 0.875207 8.08748 1.32904 8.5 1.875C8.91252 1.32904 9.4431 0.875207 10.0583 0.550039C11.0218 0.040717 12.1334 -0.121483 13.2039 0.0910354C14.2743 0.303554 15.2376 0.877663 15.9297 1.71568C16.6218 2.5537 17 3.60387 17 4.68751C17 7.63142 14.8416 10.2144 12.8564 11.988C11.8447 12.8918 10.8359 13.6225 10.0814 14.1268C9.70353 14.3794 9.38788 14.5762 9.16551 14.7105C9.05428 14.7777 8.96628 14.8294 8.90537 14.8646C8.87491 14.8822 8.85122 14.8957 8.83477 14.905C8.82655 14.9097 8.82013 14.9133 8.81559 14.9159L8.81019 14.9189L8.80856 14.9198C8.80856 14.9198 8.80764 14.9203 8.5 14.375ZM8.5 14.375L8.80764 14.9203C8.61651 15.0266 8.38312 15.0264 8.19199 14.9201L8.5 14.375Z" fill="black"/>
</svg>
