<svg width="18" height="10" viewBox="0 0 18 10" fill="none" xmlns="http://www.w3.org/2000/svg">
<path fill-rule="evenodd" clip-rule="evenodd" d="M0.375 1.0625C0.375 0.648286 0.710786 0.3125 1.125 0.3125H16.875C17.2892 0.3125 17.625 0.648286 17.625 1.0625C17.625 1.47671 17.2892 1.8125 16.875 1.8125H1.125C0.710786 1.8125 0.375 1.47671 0.375 1.0625ZM3.1875 5C3.1875 4.58579 3.52329 4.25 3.9375 4.25H14.0625C14.4767 4.25 14.8125 4.58579 14.8125 5C14.8125 5.41421 14.4767 5.75 14.0625 5.75H3.9375C3.52329 5.75 3.1875 5.41421 3.1875 5ZM6.5625 8.9375C6.5625 8.52329 6.89829 8.1875 7.3125 8.1875H10.6875C11.1017 8.1875 11.4375 8.52329 11.4375 8.9375C11.4375 9.35171 11.1017 9.6875 10.6875 9.6875H7.3125C6.89829 9.6875 6.5625 9.35171 6.5625 8.9375Z" fill="black"/>
</svg>
