<svg width="15" height="15" viewBox="0 0 15 15" fill="none" xmlns="http://www.w3.org/2000/svg">
<path fill-rule="evenodd" clip-rule="evenodd" d="M3.68125 0.731617C3.78254 0.811171 3.89632 0.918222 4.02723 1.04753C4.30734 1.32331 4.63226 1.76496 4.91108 2.18895C5.19313 2.61784 5.45449 3.06935 5.60098 3.3836C5.68401 3.56216 5.75903 3.72436 5.81164 3.86618C5.86506 4.01019 5.90945 4.1686 5.90974 4.34146C5.91034 4.70331 5.71393 4.98258 5.52475 5.24016C5.4704 5.31416 5.42422 5.3748 5.38442 5.42706C5.29863 5.53972 5.24238 5.61357 5.19736 5.69898C5.15344 5.7823 5.14062 5.84245 5.16141 5.93928C5.19139 6.07891 5.3217 6.38456 5.57474 6.78441C5.81946 7.1711 6.15452 7.60725 6.55485 8.00631C6.95509 8.40528 7.38432 8.73151 7.7633 8.96756C8.15382 9.2108 8.45455 9.33567 8.5982 9.36631C8.69817 9.38763 8.7606 9.37429 8.84408 9.33084C8.93214 9.28499 9.01049 9.22518 9.13233 9.13216C9.18021 9.09561 9.2348 9.05393 9.29934 9.00596L9.30431 9.00227C9.56277 8.81023 9.84994 8.59688 10.2139 8.59726C10.3938 8.59745 10.5552 8.64823 10.6973 8.70625C10.8331 8.76168 10.9891 8.84027 11.1603 8.92648L11.1744 8.93358C11.4743 9.08484 11.9205 9.34115 12.3522 9.62045C12.7763 9.89484 13.2238 10.2151 13.5024 10.4959C13.632 10.6267 13.7396 10.7408 13.8193 10.842C13.8964 10.9399 13.9811 11.0666 14.0168 11.2242C14.057 11.4017 14.0206 11.5494 13.9832 11.6518C13.9663 11.698 13.9464 11.7423 13.9322 11.774C13.93 11.779 13.9278 11.7838 13.9257 11.7885C13.9124 11.8179 13.9008 11.8436 13.8885 11.873L13.8879 11.8744C13.7618 12.1735 13.6084 12.4603 13.4297 12.7312L13.4286 12.7328C13.0793 13.2575 12.7508 13.6003 12.24 13.8383C11.9746 13.9619 11.5954 14.0867 11.006 14.0133C10.4392 13.9426 9.7017 13.6916 8.69518 13.1279C7.08453 12.2246 5.96669 11.4457 4.52502 10.008C3.08759 8.57459 2.38106 7.63905 1.39132 5.84104C0.394929 4.03095 0.396356 2.91472 0.680901 2.30668C0.919811 1.79616 1.26609 1.4691 1.78907 1.12164L1.79113 1.12027C2.06233 0.942096 2.34927 0.789133 2.64836 0.663291L2.65034 0.662461C2.67994 0.650161 2.70583 0.63856 2.73543 0.62529C2.74007 0.623209 2.7448 0.621088 2.74965 0.618917C2.78146 0.604683 2.82581 0.584896 2.87197 0.568132C2.97426 0.530975 3.12165 0.494679 3.29883 0.534631C3.45637 0.570153 3.5831 0.654534 3.68125 0.731617Z" fill="white"/>
</svg>
