<svg width="18" height="18" viewBox="0 0 18 18" fill="none" xmlns="http://www.w3.org/2000/svg">
<path fill-rule="evenodd" clip-rule="evenodd" d="M8.08333 1.75C6.40363 1.75 4.79272 2.41726 3.60499 3.60499C2.41726 4.79272 1.75 6.40363 1.75 8.08333C1.75 9.76304 2.41726 11.3739 3.60499 12.5617C4.79272 13.7494 6.40363 14.4167 8.08333 14.4167C9.75591 14.4167 11.3603 13.7551 12.5465 12.5768C12.5526 12.5703 12.5588 12.5639 12.5651 12.5575C12.5709 12.5518 12.5768 12.5461 12.5827 12.5406C13.7573 11.3549 14.4167 9.75311 14.4167 8.08333C14.4167 6.40363 13.7494 4.79272 12.5617 3.60499C11.3739 2.41726 9.76304 1.75 8.08333 1.75ZM14.1298 13.0634C15.2801 11.667 15.9167 9.90798 15.9167 8.08333C15.9167 6.0058 15.0914 4.01337 13.6223 2.54433C12.1533 1.0753 10.1609 0.25 8.08333 0.25C6.0058 0.25 4.01337 1.0753 2.54433 2.54433C1.0753 4.01337 0.25 6.0058 0.25 8.08333C0.25 10.1609 1.0753 12.1533 2.54433 13.6223C4.01337 15.0914 6.0058 15.9167 8.08333 15.9167C9.91073 15.9167 11.6723 15.2781 13.0697 14.1246L16.3025 17.3632C16.5952 17.6563 17.07 17.6568 17.3632 17.3641C17.6563 17.0715 17.6568 16.5966 17.3641 16.3035L14.1298 13.0634Z" fill="white"/>
</svg>
