<svg width="15" height="15" viewBox="0 0 15 15" fill="none" xmlns="http://www.w3.org/2000/svg">
<path fill-rule="evenodd" clip-rule="evenodd" d="M4.66833 3.04166H1.16667C0.890529 3.04166 0.666672 3.26551 0.666672 3.54166C0.666672 3.8178 0.890529 4.04166 1.16667 4.04166H2.25001V12.25C2.25001 13.4006 3.18275 14.3333 4.33334 14.3333H10.6667C11.8173 14.3333 12.75 13.4006 12.75 12.25V4.04166H13.8333C14.1095 4.04166 14.3333 3.8178 14.3333 3.54166C14.3333 3.26551 14.1095 3.04166 13.8333 3.04166H10.3317C10.095 1.69219 8.91732 0.666656 7.50001 0.666656C6.08269 0.666656 4.90497 1.69219 4.66833 3.04166ZM5.69241 3.04166H9.3076C9.0888 2.24886 8.36241 1.66666 7.50001 1.66666C6.6376 1.66666 5.91121 2.24886 5.69241 3.04166ZM11.75 4.04166H3.25001V12.25C3.25001 12.8483 3.73502 13.3333 4.33334 13.3333H10.6667C11.265 13.3333 11.75 12.8483 11.75 12.25V4.04166Z" fill="black"/>
</svg>
