<svg width="23" height="24" viewBox="0 0 23 24" fill="none" xmlns="http://www.w3.org/2000/svg">
<path d="M17.8019 0.569649C13.6274 -0.189883 9.29232 -0.189883 5.1178 0.569649C3.27138 0.949415 0.943281 3.0761 0.541885 4.74708C-0.180628 8.01306 -0.180628 11.355 0.541885 14.621C1.02356 16.292 3.35166 18.4187 5.1178 18.7984C5.19808 18.7984 5.27836 18.8744 5.27836 18.9503V23.7354C5.27836 23.9632 5.59948 24.1151 5.76004 23.8873L8.16841 21.5327C8.16841 21.5327 10.0951 19.6339 10.4162 19.3301C10.4162 19.3301 10.4965 19.2541 10.5768 19.2541C12.9852 19.3301 15.4738 19.1022 17.8822 18.7225C19.7286 18.3427 22.0567 16.216 22.4581 14.545C23.1806 11.2791 23.1806 7.93711 22.4581 4.67112C21.9764 3.07611 19.6483 0.949415 17.8019 0.569649ZM17.8822 14.8489C17.4808 15.6084 16.9991 16.216 16.1963 16.5958C15.9555 16.6717 15.7147 16.7477 15.4738 16.8236C15.1527 16.7477 14.9119 16.6717 14.671 16.5958C12.1021 15.6084 9.69372 14.2412 7.76702 12.2664C6.72339 11.1271 5.84031 9.83594 5.1178 8.46878C4.79668 7.7852 4.47557 7.17758 4.23473 6.494C3.99389 5.88637 4.39529 5.27875 4.79668 4.82303C5.19808 4.36731 5.67976 4.0635 6.24171 3.83564C6.64311 3.60778 7.0445 3.75968 7.36562 4.0635C8.00785 4.82303 8.65009 5.58256 9.13176 6.41805C9.45288 6.94972 9.3726 7.55734 8.81064 7.93711C8.65008 8.01306 8.5698 8.08902 8.40925 8.24092C8.32897 8.31688 8.16841 8.39283 8.08813 8.54473C7.92757 8.77259 7.92757 9.00045 8.00785 9.22831C8.65009 10.9752 9.85427 12.3424 11.7007 13.1019C12.0218 13.2538 12.2627 13.3298 12.6641 13.3298C13.226 13.2538 13.4668 12.6462 13.8682 12.3424C14.2696 12.0386 14.7513 12.0386 15.233 12.2664C15.6344 12.4943 16.0358 12.7981 16.5175 13.1019C16.9188 13.4057 17.3202 13.6336 17.7216 13.9374C17.9625 14.0893 18.0428 14.4691 17.8822 14.8489ZM14.5105 9.15236C14.4302 9.15236 14.3499 9.15236 14.5105 9.15236C14.1894 9.15236 14.1091 9.00046 14.0288 8.7726C14.0288 8.62069 14.0288 8.39283 13.9485 8.24092C13.8682 7.93711 13.7077 7.6333 13.3866 7.40544C13.226 7.32949 13.0654 7.25353 12.9049 7.17758C12.664 7.10162 12.5035 7.10163 12.2627 7.10163C12.0218 7.02567 11.9415 6.87377 11.9415 6.64591C11.9415 6.494 12.1824 6.34209 12.3429 6.34209C13.6274 6.41805 14.5907 7.10162 14.7513 8.54473C14.7513 8.62069 14.7513 8.7726 14.7513 8.84855C14.7513 9.00046 14.671 9.15236 14.5105 9.15236ZM13.7077 5.81042C13.3063 5.65851 12.9049 5.50661 12.4232 5.43065C12.2627 5.43065 12.0218 5.3547 11.8613 5.3547C11.6204 5.3547 11.4599 5.20279 11.5401 4.97493C11.5401 4.74707 11.7007 4.59517 11.9415 4.67112C12.7443 4.74708 13.4668 4.89898 14.1894 5.2028C15.6344 5.88637 16.4372 7.02567 16.678 8.54473C16.678 8.62069 16.678 8.69664 16.678 8.7726C16.678 8.9245 16.678 9.07641 16.678 9.30427C16.678 9.38022 16.678 9.45618 16.678 9.53213C16.5977 9.83594 16.0358 9.9119 15.9555 9.53213C15.9555 9.45618 15.8752 9.30427 15.8752 9.22831C15.8752 8.54474 15.7147 7.86116 15.3935 7.25353C14.9119 6.56995 14.3499 6.11423 13.7077 5.81042ZM18.0428 10.3676C17.8019 10.3676 17.6414 10.1398 17.6414 9.91189C17.6414 9.45618 17.5611 9.00045 17.4808 8.54473C17.1597 6.11423 15.0724 4.13945 12.5838 3.75968C12.1824 3.68373 11.781 3.68373 11.4599 3.60778C11.219 3.60778 10.8979 3.60778 10.8176 3.30396C10.7373 3.07611 10.9782 2.84825 11.219 2.84825C11.2993 2.84825 11.3796 2.84825 11.3796 2.84825C14.671 2.9242 11.5401 2.84825 11.3796 2.84825C14.7513 2.9242 17.5611 5.05089 18.123 8.24092C18.2033 8.7726 18.2836 9.30427 18.2836 9.91189C18.4442 10.1398 18.2836 10.3676 18.0428 10.3676Z" fill="#7327AE"/>
</svg>
