<svg width="24" height="24" viewBox="0 0 24 24" fill="none" xmlns="http://www.w3.org/2000/svg">
<path fill-rule="evenodd" clip-rule="evenodd" d="M16.4848 1.75066C16.4741 1.74928 16.4633 1.75007 16.453 1.75297L16.439 1.75677L6.84244 4.2617C6.44165 4.36631 6.03195 4.12622 5.92733 3.72543C5.82272 3.32465 6.06281 2.91494 6.4636 2.81033L16.0543 0.306931C16.2572 0.250923 16.4693 0.236035 16.6781 0.263176C16.8897 0.290677 17.0935 0.360763 17.2772 0.4692C17.461 0.577639 17.6208 0.722182 17.7472 0.894106C17.8722 1.06425 17.9618 1.25773 18.0108 1.46308L18.4836 3.35411C18.584 3.75596 18.3397 4.16316 17.9379 4.26362C17.536 4.36408 17.1288 4.11976 17.0283 3.71791L16.5517 1.81128C16.5492 1.80085 16.5448 1.79099 16.5385 1.78236C16.5321 1.77372 16.5241 1.76646 16.5148 1.76101C16.5056 1.75556 16.4954 1.75204 16.4848 1.75066ZM0.965398 7.73271C1.42346 7.27465 2.04472 7.01731 2.69252 7.01731H18.7715C19.4193 7.01731 20.0405 7.27465 20.4986 7.73271C20.9566 8.19077 21.214 8.81204 21.214 9.45983V12.8449C21.214 13.2591 20.8782 13.5949 20.464 13.5949C20.0498 13.5949 19.714 13.2591 19.714 12.8449V9.45983C19.714 9.20986 19.6147 8.97013 19.4379 8.79337C19.2612 8.61661 19.0214 8.51731 18.7715 8.51731H2.69252C2.44255 8.51731 2.20282 8.61661 2.02606 8.79337C1.8493 8.97013 1.75 9.20986 1.75 9.45983V21.3075C1.75 21.5575 1.8493 21.7972 2.02606 21.9739C2.20282 22.1507 2.44255 22.25 2.69252 22.25H18.7715C19.0214 22.25 19.2612 22.1507 19.4379 21.9739C19.6147 21.7972 19.714 21.5575 19.714 21.3075V17.0762C19.714 16.662 20.0498 16.3262 20.464 16.3262C20.8782 16.3262 21.214 16.662 21.214 17.0762V21.3075C21.214 21.9553 20.9566 22.5765 20.4986 23.0346C20.0405 23.4927 19.4193 23.75 18.7715 23.75H2.69252C2.04472 23.75 1.42346 23.4927 0.965398 23.0346C0.507336 22.5765 0.25 21.9553 0.25 21.3075V9.45983C0.25 8.81204 0.507336 8.19077 0.965398 7.73271Z" fill="#009387"/>
<path fill-rule="evenodd" clip-rule="evenodd" d="M17.9248 13.5949C17.8717 13.5949 17.8287 13.6379 17.8287 13.691V16.2292C17.8287 16.2823 17.8717 16.3253 17.9248 16.3253H22.1551C22.2082 16.3253 22.2512 16.2823 22.2512 16.2292V13.691C22.2512 13.6379 22.2082 13.5949 22.1551 13.5949H17.9248ZM16.3287 13.691C16.3287 12.8095 17.0433 12.0949 17.9248 12.0949H22.1551C23.0366 12.0949 23.7512 12.8095 23.7512 13.691V16.2292C23.7512 17.1107 23.0366 17.8253 22.1551 17.8253H17.9248C17.0433 17.8253 16.3287 17.1107 16.3287 16.2292V13.691Z" fill="#009387"/>
</svg>
