<svg width="18" height="18" viewBox="0 0 18 18" fill="none" xmlns="http://www.w3.org/2000/svg">
<g clip-path="url(#clip0_2713_179797)">
<path d="M9.03774 0C4.09761 0 0.0772258 3.87232 0.0754839 8.63129C0.0743226 10.1532 0.487742 11.6385 1.27161 12.9466L0 17.4194L4.75142 16.2192C6.07309 16.9105 7.54268 17.2711 9.03426 17.2701H9.03774C13.9779 17.2701 17.9983 13.3972 18 8.63826C18.0012 6.3331 17.0698 4.16323 15.3772 2.53219C13.6852 0.900581 11.4352 0.000580645 9.03774 0ZM9.03774 15.8121H9.03484C7.69819 15.8121 6.3871 15.4661 5.24322 14.8123L4.97032 14.6566L2.15187 15.3685L2.90439 12.7208L2.72729 12.4496C1.98343 11.3151 1.58745 9.98791 1.58806 8.63129C1.58981 4.67535 4.932 1.458 9.04064 1.458C11.0299 1.45858 12.9002 2.20587 14.3071 3.56168C15.714 4.91748 16.488 6.72039 16.4868 8.63768C16.4851 12.5936 13.1441 15.8121 9.03774 15.8121ZM13.1237 10.4383C12.8996 10.3308 11.7987 9.80884 11.5932 9.73626C11.3882 9.66484 11.239 9.62768 11.0897 9.84368C10.9411 10.0597 10.5114 10.5457 10.3814 10.6891C10.2501 10.8331 10.1195 10.8505 9.89535 10.7431C9.67122 10.6351 8.94948 10.4075 8.09477 9.67239C7.42877 9.10103 6.97935 8.39497 6.84871 8.17839C6.71806 7.96297 6.83477 7.84626 6.94684 7.73884C7.04729 7.64303 7.17097 7.48742 7.28245 7.36142C7.39393 7.23542 7.4311 7.14542 7.50658 7.00142C7.5809 6.858 7.54374 6.73142 7.48742 6.624C7.4311 6.51542 6.984 5.454 6.79645 5.02258C6.61529 4.60219 6.43064 4.65852 6.29303 4.65155C6.16239 4.64574 6.01374 4.644 5.86335 4.644C5.71529 4.644 5.472 4.698 5.26645 4.914C5.06148 5.13 4.48258 5.65142 4.48258 6.71284C4.48258 7.77484 5.28503 8.80026 5.3971 8.94426C5.50916 9.08768 6.97645 11.2668 9.22297 12.2017C9.75716 12.4229 10.1741 12.5559 10.4998 12.6557C11.0363 12.8201 11.5246 12.7963 11.9102 12.7411C12.3399 12.679 13.2352 12.2197 13.421 11.7163C13.608 11.2128 13.608 10.7808 13.5523 10.6908C13.4977 10.6008 13.3479 10.5468 13.1237 10.4383Z" fill="black" fill-opacity="0.34"/>
</g>
<defs>
<clipPath id="clip0_2713_179797">
<rect width="18" height="18" fill="white"/>
</clipPath>
</defs>
</svg>
