<svg width="95" height="75" viewBox="0 0 95 75" fill="none" xmlns="http://www.w3.org/2000/svg">
<g clip-path="url(#clip0_407_222524)">
<path d="M77.8818 27.5599C77.8818 27.5599 67.205 35.2455 76.7466 54.8383C85.2207 72.2389 61.9125 77.1709 52.35 74.3211C39.9626 70.6294 34.2573 53.9689 24.1121 58.0913C13.967 62.2138 6.61874 38.3738 21.4797 31.301C39.9663 22.5028 29.343 15.3224 31.6564 7.78371C33.3167 2.37312 50.1697 -4.61019 57.8695 5.96077C64.3489 14.8558 68.1986 12.2704 71.6282 11.4984C76.5743 10.3851 86.2441 19.6013 77.8818 27.5599Z" fill="#E0F8F2"/>
<path d="M78.0095 34.4232L77.9364 34.8785C77.8754 35.2577 77.6663 35.5972 77.355 35.8223C77.0438 36.0474 76.6559 36.1396 76.2766 36.0787L76.2433 36.0733C75.9239 36.022 75.5964 36.0791 75.3132 36.2356C75.03 36.392 74.8073 36.6388 74.6807 36.9366L64.4101 61.0919C64.1138 61.79 63.5922 62.3688 62.9285 62.7358C62.2648 63.1029 61.4973 63.237 60.7485 63.1168L32.1052 58.5147C31.3396 58.3934 30.6389 58.013 30.1203 57.4371C29.6016 56.8611 29.2964 56.1245 29.2557 55.3505L27.8334 29.4504C27.8153 29.1203 27.6847 28.8063 27.4634 28.5606C27.2421 28.3149 26.9434 28.1523 26.617 28.0999C26.4292 28.0697 26.2492 28.0028 26.0872 27.9031C25.9253 27.8034 25.7846 27.6727 25.6731 27.5186C25.5617 27.3645 25.4817 27.1899 25.4377 27.0048C25.3937 26.8198 25.3866 26.6279 25.4168 26.4401L25.4899 25.9849C25.5201 25.7971 25.5869 25.6171 25.6867 25.4552C25.7864 25.2932 25.9171 25.1525 26.0712 25.0411C26.2253 24.9296 26.3999 24.8496 26.5849 24.8056C26.7699 24.7616 26.9618 24.7545 27.1496 24.7847L39.2831 26.7342C39.4695 26.7641 39.6605 26.7396 39.8332 26.6635C40.006 26.5874 40.153 26.463 40.2567 26.3052L48.731 13.4105C48.8432 13.2389 49.0025 13.1035 49.1899 13.0206C49.3773 12.9376 49.5847 12.9107 49.787 12.9429C49.934 12.9657 50.0742 13.02 50.1982 13.1021C50.3152 13.1787 50.416 13.2775 50.4948 13.3931C50.5736 13.5086 50.6288 13.6386 50.6574 13.7755C50.6859 13.9124 50.6872 14.0535 50.6611 14.1909C50.6351 14.3283 50.5822 14.4593 50.5055 14.5762L43.036 25.9392C42.9462 26.0758 42.8921 26.2327 42.8785 26.3955C42.8649 26.5584 42.8923 26.7221 42.9582 26.8717C43.024 27.0212 43.1263 27.1519 43.2557 27.2518C43.385 27.3517 43.5373 27.4177 43.6987 27.4436L59.8474 30.038C60.0088 30.064 60.1742 30.0491 60.3284 29.9947C60.4826 29.9403 60.6207 29.8482 60.7301 29.7268C60.8395 29.6053 60.9168 29.4584 60.9549 29.2994C60.9929 29.1404 60.9906 28.9744 60.948 28.8165L57.4079 15.6853C57.3365 15.4125 57.3755 15.1226 57.5166 14.8784C57.6578 14.6343 57.8895 14.4558 58.1615 14.3816C58.305 14.3424 58.4552 14.3348 58.6018 14.3592C58.8041 14.392 58.9926 14.4825 59.1446 14.62C59.2965 14.7575 59.4055 14.936 59.4582 15.134L63.4668 30.0344C63.5158 30.2167 63.6165 30.3809 63.7567 30.5072C63.8969 30.6336 64.0706 30.7168 64.2569 30.7467L76.8092 32.7635C76.997 32.7936 77.177 32.8605 77.3389 32.9602C77.5009 33.06 77.6416 33.1906 77.7531 33.3447C77.8645 33.4989 77.9446 33.6734 77.9886 33.8585C78.0326 34.0435 78.0397 34.2354 78.0095 34.4232Z" fill="#009387"/>
<path d="M39.9888 30.8751L36.8257 30.3668C36.8001 30.3627 36.776 30.3802 36.7718 30.4058L33.002 53.8683C32.9979 53.8939 33.0153 53.918 33.0409 53.9221L36.204 54.4304C36.2297 54.4345 36.2538 54.417 36.2579 54.3914L40.0278 30.9289C40.0319 30.9033 40.0144 30.8792 39.9888 30.8751Z" fill="#E0F8F2"/>
<path d="M66.1743 35.0079L63.0112 34.4996C62.9856 34.4955 62.9615 34.513 62.9574 34.5386L59.1876 58.0011C59.1834 58.0267 59.2009 58.0508 59.2265 58.0549L62.3896 58.5631C62.4152 58.5673 62.4393 58.5498 62.4435 58.5242L66.2133 35.0617C66.2174 35.0361 66.2 35.012 66.1743 35.0079Z" fill="#E0F8F2"/>
<path d="M46.5033 31.929L43.3413 31.4196C43.3157 31.4155 43.2916 31.4329 43.2874 31.4585L39.5091 54.913C39.5049 54.9386 39.5224 54.9627 39.548 54.9668L42.71 55.4762C42.7356 55.4803 42.7597 55.4629 42.7639 55.4373L46.5422 31.9828C46.5464 31.9572 46.529 31.9331 46.5033 31.929Z" fill="#E0F8F2"/>
<path d="M53.0884 32.9044L49.9253 32.3961C49.8997 32.392 49.8756 32.4094 49.8715 32.4351L46.1016 55.8975C46.0975 55.9232 46.1149 55.9473 46.1406 55.9514L49.3037 56.4596C49.3293 56.4637 49.3534 56.4463 49.3575 56.4207L53.1273 32.9582C53.1315 32.9326 53.114 32.9085 53.0884 32.9044Z" fill="#E0F8F2"/>
<path d="M59.6314 33.9551L56.4683 33.4469C56.4427 33.4428 56.4185 33.4602 56.4144 33.4859L52.6446 56.9483C52.6405 56.9739 52.6579 56.9981 52.6835 57.0022L55.8466 57.5104C55.8722 57.5145 55.8964 57.4971 55.9005 57.4715L59.6703 34.009C59.6744 33.9834 59.657 33.9593 59.6314 33.9551Z" fill="#E0F8F2"/>
</g>
<defs>
<clipPath id="clip0_407_222524">
<rect width="94" height="75" fill="white" transform="translate(0.5)"/>
</clipPath>
</defs>
</svg>
