<svg width="97" height="97" viewBox="0 0 97 97" fill="none" xmlns="http://www.w3.org/2000/svg">
<g clip-path="url(#clip0_407_219058)">
<path d="M61.794 3.11976C61.794 3.11976 49.1475 19.1388 28.9127 9.5839C8.67799 0.0289974 -11.5565 25.8837 5.8676 41.6217C23.2917 57.3598 6.24091 66.0078 18.0783 75.653C31.5322 86.6155 43.2455 64.3857 53.9248 69.4444C77.4947 80.609 94.9562 76.1892 91.0216 63.2616C84.1152 40.5687 75.2836 39.0924 82.0285 27.2889C88.7734 15.4854 73.8875 -9.05713 61.794 3.11976Z" fill="#DEE9FF"/>
<path d="M40.1875 53.3818C40.1875 64.2594 49.0043 73.0761 59.8818 73.0761C62.4147 73.0804 64.9244 72.5928 67.2715 71.6404C67.3198 71.6461 67.3684 71.649 67.4171 71.649H76.0368C76.3142 71.6492 76.589 71.5946 76.8453 71.4885C77.1016 71.3825 77.3345 71.2269 77.5307 71.0307C77.7268 70.8346 77.8824 70.6017 77.9885 70.3454C78.0946 70.089 78.1491 69.8143 78.149 69.5369V60.7515C79.0956 58.41 79.5802 55.9074 79.5761 53.3818C79.5761 42.5043 70.7593 33.6875 59.8818 33.6875C49.0043 33.6875 40.1875 42.5043 40.1875 53.3818Z" fill="url(#paint0_linear_407_219058)"/>
<path d="M67.7645 39.422C67.7645 53.0684 56.7035 64.1294 43.0571 64.1294C39.8795 64.1347 36.731 63.523 33.7865 62.3283C33.7259 62.3354 33.6649 62.339 33.6039 62.339H22.7898C22.4418 62.3392 22.0971 62.2708 21.7755 62.1377C21.454 62.0046 21.1618 61.8094 20.9157 61.5633C20.6696 61.3172 20.4744 61.025 20.3413 60.7035C20.2082 60.3819 20.1398 60.0372 20.14 59.6892V48.6676C18.9525 45.7301 18.3446 42.5906 18.3496 39.4222C18.3496 25.7758 29.4106 14.7148 43.057 14.7148C56.7034 14.7148 67.7645 25.7757 67.7645 39.422Z" fill="url(#paint1_linear_407_219058)"/>
<path d="M31.6003 44.4349C33.5779 44.4349 35.1811 42.8318 35.1811 40.8542C35.1811 38.8766 33.5779 37.2734 31.6003 37.2734C29.6227 37.2734 28.0195 38.8766 28.0195 40.8542C28.0195 42.8318 29.6227 44.4349 31.6003 44.4349Z" fill="white"/>
<path d="M41.9831 44.4349C43.9607 44.4349 45.5639 42.8318 45.5639 40.8542C45.5639 38.8766 43.9607 37.2734 41.9831 37.2734C40.0055 37.2734 38.4023 38.8766 38.4023 40.8542C38.4023 42.8318 40.0055 44.4349 41.9831 44.4349Z" fill="white"/>
<path d="M52.7253 44.4349C54.7029 44.4349 56.3061 42.8318 56.3061 40.8542C56.3061 38.8766 54.7029 37.2734 52.7253 37.2734C50.7477 37.2734 49.1445 38.8766 49.1445 40.8542C49.1445 42.8318 50.7477 44.4349 52.7253 44.4349Z" fill="white"/>
<path d="M63.8263 27.6056C67.3859 27.6056 70.2716 24.7199 70.2716 21.1602C70.2716 17.6005 67.3859 14.7148 63.8263 14.7148C60.2666 14.7148 57.3809 17.6005 57.3809 21.1602C57.3809 24.7199 60.2666 27.6056 63.8263 27.6056Z" fill="url(#paint2_linear_407_219058)" stroke="white" stroke-width="15" stroke-miterlimit="10"/>
<path d="M65.8726 19.2487C65.7877 18.9209 65.6353 18.6145 65.4253 18.3489C65.24 18.1251 64.9996 17.9535 64.7278 17.851C64.1413 17.6486 63.5039 17.6486 62.9174 17.851C62.646 17.9529 62.4064 18.1247 62.2226 18.3489C62.0105 18.6132 61.8579 18.9201 61.7753 19.2487C61.6622 19.6913 61.6094 20.1471 61.6182 20.6038V21.6901C61.609 22.1478 61.6628 22.6047 61.778 23.0479C61.8615 23.3791 62.0149 23.6886 62.2279 23.9557C62.4128 24.1817 62.6532 24.356 62.9254 24.4616C63.5089 24.671 64.147 24.671 64.7305 24.4616C65.0012 24.3559 65.2397 24.1815 65.4227 23.9557C65.6323 23.6873 65.7837 23.3781 65.8673 23.0479C65.9801 22.6043 66.033 22.1477 66.0243 21.6901H66.0297V20.6038C66.0385 20.1471 65.9856 19.6913 65.8726 19.2487ZM64.9008 21.8524C64.9045 22.1423 64.8814 22.432 64.8316 22.7177C64.798 22.9208 64.7286 23.1164 64.6267 23.2953C64.5482 23.4334 64.4318 23.5461 64.2913 23.6201C64.1469 23.6897 63.9882 23.7244 63.828 23.7213C63.6679 23.7237 63.5093 23.6891 63.3647 23.6201C63.2224 23.5457 63.1035 23.4333 63.0212 23.2953C62.9171 23.1167 62.845 22.9212 62.8082 22.7177C62.7538 22.4325 62.7288 22.1426 62.7337 21.8524V20.4308C62.729 20.1416 62.7531 19.8526 62.8056 19.5682C62.8406 19.3688 62.9119 19.1775 63.0159 19.0038C63.0984 18.871 63.2165 18.764 63.3567 18.6949C63.502 18.6317 63.6588 18.5991 63.8173 18.5991C63.9757 18.5991 64.1325 18.6317 64.2778 18.6949C64.4192 18.7624 64.5376 18.8697 64.6186 19.0038C64.7226 19.1775 64.7939 19.3688 64.8289 19.5682C64.8815 19.8526 64.9056 20.1416 64.9008 20.4308V21.8525L64.9008 21.8524Z" fill="white"/>
<g clip-path="url(#clip1_407_219058)">
<path d="M61.794 3.11976C61.794 3.11976 49.1475 19.1388 28.9127 9.5839C8.67799 0.0289974 -11.5565 25.8837 5.8676 41.6217C23.2917 57.3598 6.24091 66.0078 18.0783 75.653C31.5322 86.6155 43.2455 64.3857 53.9248 69.4444C77.4947 80.609 94.9562 76.1892 91.0216 63.2616C84.1152 40.5687 75.2836 39.0924 82.0285 27.2889C88.7734 15.4854 73.8875 -9.05713 61.794 3.11976Z" fill="#E0F8F2"/>
<path d="M40.1875 53.3818C40.1875 64.2594 49.0043 73.0761 59.8818 73.0761C62.4147 73.0804 64.9244 72.5928 67.2715 71.6404C67.3198 71.6461 67.3684 71.649 67.4171 71.649H76.0368C76.3142 71.6492 76.589 71.5946 76.8453 71.4885C77.1016 71.3825 77.3345 71.2269 77.5307 71.0307C77.7268 70.8346 77.8824 70.6017 77.9885 70.3454C78.0946 70.089 78.1491 69.8143 78.149 69.5369V60.7515C79.0956 58.41 79.5802 55.9074 79.5761 53.3818C79.5761 42.5043 70.7593 33.6875 59.8818 33.6875C49.0043 33.6875 40.1875 42.5043 40.1875 53.3818Z" fill="#009387"/>
<path d="M67.7645 39.422C67.7645 53.0684 56.7035 64.1294 43.0571 64.1294C39.8795 64.1347 36.731 63.523 33.7865 62.3283C33.7259 62.3354 33.6649 62.339 33.6039 62.339H22.7898C22.4418 62.3392 22.0971 62.2708 21.7755 62.1377C21.454 62.0046 21.1618 61.8094 20.9157 61.5633C20.6696 61.3172 20.4744 61.025 20.3413 60.7035C20.2082 60.3819 20.1398 60.0372 20.14 59.6892V48.6676C18.9525 45.7301 18.3446 42.5906 18.3496 39.4222C18.3496 25.7758 29.4106 14.7148 43.057 14.7148C56.7034 14.7148 67.7645 25.7757 67.7645 39.422Z" fill="#FF6D2C"/>
<path d="M31.6003 44.4349C33.5779 44.4349 35.1811 42.8318 35.1811 40.8542C35.1811 38.8766 33.5779 37.2734 31.6003 37.2734C29.6227 37.2734 28.0195 38.8766 28.0195 40.8542C28.0195 42.8318 29.6227 44.4349 31.6003 44.4349Z" fill="white"/>
<path d="M41.9831 44.4349C43.9607 44.4349 45.5639 42.8318 45.5639 40.8542C45.5639 38.8766 43.9607 37.2734 41.9831 37.2734C40.0055 37.2734 38.4023 38.8766 38.4023 40.8542C38.4023 42.8318 40.0055 44.4349 41.9831 44.4349Z" fill="white"/>
<path d="M52.7253 44.4349C54.7029 44.4349 56.3061 42.8318 56.3061 40.8542C56.3061 38.8766 54.7029 37.2734 52.7253 37.2734C50.7477 37.2734 49.1445 38.8766 49.1445 40.8542C49.1445 42.8318 50.7477 44.4349 52.7253 44.4349Z" fill="white"/>
<path d="M63.8263 27.6056C67.3859 27.6056 70.2716 24.7199 70.2716 21.1602C70.2716 17.6005 67.3859 14.7148 63.8263 14.7148C60.2666 14.7148 57.3809 17.6005 57.3809 21.1602C57.3809 24.7199 60.2666 27.6056 63.8263 27.6056Z" fill="#FF6D2C" stroke="white" stroke-width="15" stroke-miterlimit="10"/>
<path d="M65.8726 19.2487C65.7877 18.9209 65.6353 18.6145 65.4253 18.3489C65.24 18.1251 64.9996 17.9535 64.7278 17.851C64.1413 17.6486 63.5039 17.6486 62.9174 17.851C62.646 17.9529 62.4064 18.1247 62.2226 18.3489C62.0105 18.6132 61.8579 18.9201 61.7753 19.2487C61.6622 19.6913 61.6094 20.1471 61.6182 20.6038V21.6901C61.609 22.1478 61.6628 22.6047 61.778 23.0479C61.8615 23.3791 62.0149 23.6886 62.2279 23.9557C62.4128 24.1817 62.6532 24.356 62.9254 24.4616C63.5089 24.671 64.147 24.671 64.7305 24.4616C65.0012 24.3559 65.2397 24.1815 65.4227 23.9557C65.6323 23.6873 65.7837 23.3781 65.8673 23.0479C65.9801 22.6043 66.033 22.1477 66.0243 21.6901H66.0297V20.6038C66.0385 20.1471 65.9856 19.6913 65.8726 19.2487ZM64.9008 21.8524C64.9045 22.1423 64.8814 22.432 64.8316 22.7177C64.798 22.9208 64.7286 23.1164 64.6267 23.2953C64.5482 23.4334 64.4318 23.5461 64.2913 23.6201C64.1469 23.6897 63.9882 23.7244 63.828 23.7213C63.6679 23.7237 63.5093 23.6891 63.3647 23.6201C63.2224 23.5457 63.1035 23.4333 63.0212 23.2953C62.9171 23.1167 62.845 22.9212 62.8082 22.7177C62.7538 22.4325 62.7288 22.1426 62.7337 21.8524V20.4308C62.729 20.1416 62.7531 19.8526 62.8056 19.5682C62.8406 19.3688 62.9119 19.1775 63.0159 19.0038C63.0984 18.871 63.2165 18.764 63.3567 18.6949C63.502 18.6317 63.6588 18.5991 63.8173 18.5991C63.9757 18.5991 64.1325 18.6317 64.2778 18.6949C64.4192 18.7624 64.5376 18.8697 64.6186 19.0038C64.7226 19.1775 64.7939 19.3688 64.8289 19.5682C64.8815 19.8526 64.9056 20.1416 64.9008 20.4308V21.8525L64.9008 21.8524Z" fill="white"/>
</g>
</g>
<defs>
<linearGradient id="paint0_linear_407_219058" x1="59.8818" y1="33.6875" x2="59.8818" y2="73.0762" gradientUnits="userSpaceOnUse">
<stop stop-color="#F7C95F"/>
<stop offset="1" stop-color="#FDB235"/>
</linearGradient>
<linearGradient id="paint1_linear_407_219058" x1="43.0571" y1="14.7148" x2="43.0571" y2="64.1294" gradientUnits="userSpaceOnUse">
<stop stop-color="#2925CC"/>
<stop offset="1" stop-color="#4B48E5"/>
</linearGradient>
<linearGradient id="paint2_linear_407_219058" x1="63.8263" y1="14.7148" x2="63.8263" y2="27.6056" gradientUnits="userSpaceOnUse">
<stop stop-color="#2925CC"/>
<stop offset="1" stop-color="#4B48E5"/>
</linearGradient>
<clipPath id="clip0_407_219058">
<rect width="97" height="97" fill="white"/>
</clipPath>
<clipPath id="clip1_407_219058">
<rect width="97" height="97" fill="white"/>
</clipPath>
</defs>
</svg>
