<svg width="68" height="71" viewBox="0 0 68 71" fill="none" xmlns="http://www.w3.org/2000/svg">
<path d="M17.6132 2.84815C18.1969 3.43231 18.8119 3.9821 19.4959 4.44175C22.9849 6.78684 33.3659 12.4294 49.8304 10.1234C70.4021 7.24202 67.3841 28.1435 64.4239 33.7141C61.4638 39.2847 50.5771 49.4965 49.6628 54.613C48.7484 59.7294 52.6611 73.7041 43.4933 69.5106C34.3254 65.3172 29.0292 55.4955 16.9956 56.637C4.96209 57.7786 -3.54113 52.39 1.78567 42.7626C7.11246 33.1352 13.4811 26.9226 5.3523 16.1988C-2.5508 5.77332 10.7612 -4.00932 17.6132 2.84815Z" fill="#E0F8F2"/>
<path d="M38.4878 13.649C38.3353 13.4938 38.248 13.285 38.2443 13.0662C38.2405 12.8475 38.3206 12.6358 38.4677 12.4753L43.8957 6.55496C43.9726 6.47111 44.0655 6.40382 44.1687 6.35717C44.272 6.31051 44.3836 6.28543 44.4967 6.28345C44.6098 6.28147 44.7221 6.30262 44.8269 6.34564C44.9317 6.38865 45.0269 6.45263 45.1066 6.53374L45.5752 7.01058C45.6549 7.0917 45.7175 7.18827 45.7594 7.29449C45.8012 7.40071 45.8213 7.51438 45.8186 7.62867C45.8158 7.74296 45.7902 7.8555 45.7433 7.95953C45.6964 8.06357 45.6292 8.15694 45.5457 8.23405L39.6492 13.6775C39.4894 13.8251 39.2793 13.9046 39.0628 13.8992C38.8464 13.8939 38.6404 13.8042 38.4878 13.649V13.649Z" fill="#009387"/>
<path d="M35.0519 11.631C34.9221 11.5729 34.8196 11.4663 34.7657 11.3336C34.7119 11.2009 34.7109 11.0523 34.763 10.9188L36.6839 5.99569C36.7111 5.92596 36.752 5.86251 36.8041 5.80915C36.8562 5.75579 36.9185 5.71364 36.9871 5.68521C37.0557 5.65678 37.1293 5.64267 37.2035 5.64373C37.2777 5.64479 37.3509 5.66099 37.4187 5.69137L37.8173 5.86993C37.8851 5.9003 37.9462 5.94422 37.9968 5.99904C38.0474 6.05386 38.0864 6.11845 38.1117 6.18893C38.1369 6.25942 38.1478 6.33433 38.1437 6.40917C38.1396 6.48401 38.1205 6.55724 38.0876 6.62444L35.7682 11.369C35.7053 11.4976 35.5957 11.5967 35.4622 11.6456C35.3287 11.6944 35.1816 11.6892 35.0519 11.631Z" fill="#009387"/>
<path d="M31.5564 12.4356C31.1137 12.5162 30.6696 12.1323 30.5494 11.5655L28.419 1.50065C28.2919 0.899159 28.5769 0.327096 29.0465 0.24156L29.7009 0.12252C30.1705 0.0370797 30.6354 0.47292 30.7236 1.08132L32.1998 11.2651C32.2829 11.8389 31.9991 12.3551 31.5564 12.4356Z" fill="#009387"/>
<path d="M65.9922 21.9076L56.5961 20.6836C56.4379 20.6666 56.2783 20.6986 56.1386 20.7756C55.9989 20.8525 55.8858 20.9707 55.8142 21.1143L53.3157 26.0996L42.857 47.2368C42.7459 47.4601 42.5596 47.6361 42.3317 47.7331C42.1038 47.8302 41.8491 47.842 41.6133 47.7665L13.2252 38.6097C13.1469 38.5845 13.0638 38.5784 12.9827 38.5919C12.9016 38.6055 12.8248 38.6383 12.7587 38.6876C12.6926 38.737 12.6391 38.8015 12.6025 38.8759C12.5659 38.9502 12.5473 39.0323 12.5482 39.1154L12.5612 40.3066C12.5628 40.4723 12.6161 40.6332 12.7134 40.7664C12.8108 40.8997 12.9472 40.9985 13.1034 41.0488L43.1388 50.7365C43.4736 50.8445 43.7743 51.04 44.0102 51.3032C44.2462 51.5665 44.4091 51.8881 44.4825 52.2354L44.4925 52.2828C44.7538 53.733 43.3396 54.9235 41.9459 54.4961L9.01105 43.8593C8.84211 43.805 8.69658 43.694 8.59855 43.5447C8.50052 43.3955 8.45586 43.2169 8.47197 43.0385L11.0495 14.5952C11.0625 14.4486 11.1058 14.3063 11.1767 14.1777C11.2476 14.049 11.3445 13.9369 11.461 13.8486C11.5776 13.7602 11.7112 13.6976 11.8533 13.6649C11.9953 13.6321 12.1426 13.6299 12.2856 13.6584L51.7409 21.4581L54.2821 16.3545C54.3555 16.2103 54.4709 16.0923 54.6127 16.0164C54.7546 15.9405 54.9161 15.9105 55.0754 15.9303L66.5815 17.4192C66.6836 17.4322 66.7821 17.4655 66.8713 17.5172C66.9606 17.5689 67.0388 17.6379 67.1015 17.7204C67.1641 17.8028 67.21 17.897 67.2364 17.9975C67.2628 18.0979 67.2692 18.2027 67.2553 18.3057L66.8629 21.2302C66.8357 21.4365 66.7289 21.6234 66.5658 21.7503C66.4026 21.8772 66.1965 21.9338 65.9922 21.9076V21.9076Z" fill="#009387"/>
<path d="M12.6406 33.7399L15.8556 34.7768L18.9396 18.974L14.0039 18.2081L12.6406 33.7399Z" fill="#E0F8F2"/>
<path d="M37.8652 41.8761L41.0802 42.9131L49.3946 25.2174L45.8534 24.3506L37.8652 41.8761Z" fill="#E0F8F2"/>
<path d="M25.5 37.8879L28.4677 38.8451L34.8246 22.1703L29.9679 21.1545L25.5 37.8879Z" fill="#E0F8F2"/>
<path d="M21.7386 19.6016L26.5953 20.6173L22.2853 36.8508L19.0703 35.8138L21.7386 19.6016Z" fill="#E0F8F2"/>
<path d="M42.8065 23.6433L37.9498 22.6276L31.9297 39.9617L34.8974 40.9189L42.8065 23.6433Z" fill="#E0F8F2"/>
<path d="M13.2603 54.1284C15.3392 54.1284 17.0245 52.4253 17.0245 50.3246C17.0245 48.2238 15.3392 46.5208 13.2603 46.5208C11.1814 46.5208 9.49609 48.2238 9.49609 50.3246C9.49609 52.4253 11.1814 54.1284 13.2603 54.1284Z" fill="#FF6D2C"/>
<path d="M36.7544 61.7063C38.8333 61.7063 40.5186 60.0032 40.5186 57.9024C40.5186 55.8017 38.8333 54.0986 36.7544 54.0986C34.6755 54.0986 32.9902 55.8017 32.9902 57.9024C32.9902 60.0032 34.6755 61.7063 36.7544 61.7063Z" fill="#FF6D2C"/>
<path d="M67.682 17.2619L57.7656 16.0073C57.7106 16.0004 57.6604 16.0398 57.6536 16.0953L57.0525 20.9469C57.0456 21.0025 57.0846 21.0532 57.1396 21.0601L67.056 22.3147C67.111 22.3216 67.1612 22.2822 67.168 22.2267L67.7691 17.3751C67.776 17.3195 67.737 17.2689 67.682 17.2619Z" fill="#FF6D2C"/>
</svg>
